<?xml version="1.0" encoding="utf-8"?>
<!-- Generator: Adobe Illustrator 21.1.0, SVG Export Plug-In . SVG Version: 6.00 Build 0)  -->
<svg version="1.1" id="Layer_1" xmlns="http://www.w3.org/2000/svg" xmlns:xlink="http://www.w3.org/1999/xlink" x="0px" y="0px"
	 viewBox="0 0 612 792" style="enable-background:new 0 0 612 792;" xml:space="preserve">
<style type="text/css">
	.st0{clip-path:url(#SVGID_2_);fill:#FFFFFF;}
	.st1{clip-path:url(#SVGID_2_);fill:#000D38;}
	.st2{fill:#00AAE7;}
	.st3{font-family:'Poppins-Light';}
	.st4{font-size:36px;}
	.st5{fill:#FFFFFF;}
	.st6{font-family:'Poppins-Medium';}
	.st7{font-size:15px;}
	.st8{fill:none;stroke:#00AAE7;stroke-width:2;}
	.st9{fill:none;stroke:#00AAE7;stroke-width:2;stroke-miterlimit:10;}
	.st10{fill:none;stroke:#000D38;stroke-width:2;}
	.st11{fill:none;stroke:#000D38;stroke-width:2;stroke-miterlimit:10;}
	.st12{fill:#000D38;}
	.st13{fill:none;stroke:#000D38;stroke-miterlimit:10;}
	.st14{font-size:14px;}
	.st15{font-size:16px;}
	.st16{fill:#E5F2FC;}
	.st17{letter-spacing:96;}
	.st18{letter-spacing:136;}
	.st19{letter-spacing:60;}
</style>
<g>
	<g>
		<defs>
			<rect id="SVGID_1_" x="-94" y="156" width="799.9" height="480"/>
		</defs>
		<clipPath id="SVGID_2_">
			<use xlink:href="#SVGID_1_"  style="overflow:visible;"/>
		</clipPath>
		<polygon class="st0" points="-94.1,246 -94.1,636 705.9,636 705.9,246 -94.1,246 		"/>
		<polygon class="st1" points="-94.1,156 -94.1,246 705.9,246 705.9,156 -94.1,156 		"/>
	</g>
	<text transform="matrix(1 0 0 1 228.3488 217)" class="st2 st3 st4">Communication settings</text>
	<text transform="matrix(1 0 0 1 22.88 208.875)" class="st5 st6 st7">BACK</text>
	<path class="st8" d="M-33.1,177c-13.3,0-24,10.7-24,24l0,0c0,13.3,10.7,24,24,24h20c13.3,0,24-10.7,24-24l0,0c0-13.3-10.7-24-24-24
		H-33.1L-33.1,177z"/>
	<path class="st9" d="M-40.9,201h35.6 M-27.4,187.5L-40.9,201l13.5,13.5"/>
	<polyline class="st10" points="-50.3,582.7 -59.2,592 -50.3,601.3 	"/>
	<path class="st11" d="M-53.1,616c13.3,0,24-10.7,24-24s-10.7-24-24-24c-13.3,0-24,10.7-24,24S-66.4,616-53.1,616L-53.1,616z"/>
	<polyline class="st10" points="662.1,582.7 671,592 662.1,601.3 	"/>
	<path class="st11" d="M664.9,616c-13.3,0-24-10.7-24-24s10.7-24,24-24s24,10.7,24,24S678.1,616,664.9,616L664.9,616z"/>
	<path class="st12" d="M-4.1,271h295v25.7h-295V271z M-4.1,501.9h295v25.7h-295V501.9z"/>
	<path class="st5" d="M-4.1,296.7h200v38h-200V296.7z M195.9,296.7h45v38h-45V296.7z M240.9,296.7h50v38h-50V296.7z M-4.1,334.7h200
		v38h-200V334.7z M195.9,334.7h45v38h-45V334.7z M240.9,334.7h50v38h-50V334.7z M-4.1,372.7h200v38h-200V372.7z M195.9,372.7h45v38
		h-45V372.7z M240.9,372.7h50v38h-50V372.7z M-4.1,410.7h200v38h-200V410.7z M195.9,410.7h45v38h-45V410.7z M240.9,410.7h50v38h-50
		V410.7z M-4.1,448.7h200v38h-200V448.7z M195.9,448.7h45v38h-45V448.7z M240.9,448.7h50v38h-50V448.7z"/>
	<path class="st5" d="M-4.1,527.6h200v38h-200V527.6z M195.9,527.6h45v38h-45V527.6z M240.9,527.6h50v38h-50V527.6z"/>
	<path class="st13" d="M-4.1,565.6h200 M-4.1,334.7h200 M195.9,334.7h45 M-4.1,372.7h200 M195.9,372.7h45 M-4.1,410.7h200
		 M195.9,410.7h45 M-4.1,448.7h200 M195.9,448.7h45 M195.9,565.6h45 M240.9,565.6h50 M-4.1,486.7h200 M195.9,486.7h45 M240.9,486.7
		h50"/>
	<text transform="matrix(1 0 0 1 1.88 289.6953)" class="st5 st6 st14">COMMON</text>
	<text transform="matrix(1 0 0 1 1.88 323.6016)" class="st12 st6 st15">No. of units</text>
	<text transform="matrix(1 0 0 1 213.63 323.6016)" class="st12 st6 st15">3</text>
	<path class="st16" d="M269.4,331.2c8.6,0,15.5-6.9,15.5-15.5c0-8.6-6.9-15.5-15.5-15.5s-15.5,6.9-15.5,15.5
		C253.9,324.3,260.8,331.2,269.4,331.2L269.4,331.2z"/>
	<path class="st12" d="M269.4,312.5c0.4,0,0.8-0.1,1.1-0.4c0.3-0.3,0.4-0.6,0.4-1c0-0.4-0.1-0.7-0.4-1c-0.3-0.3-0.6-0.4-1.1-0.4
		c-0.4,0-0.8,0.1-1.1,0.4c-0.3,0.3-0.4,0.6-0.4,1c0,0.4,0.1,0.7,0.4,1C268.6,312.3,268.9,312.5,269.4,312.5L269.4,312.5L269.4,312.5
		z M268.1,313.3v8.3h2.6v-8.3H268.1L268.1,313.3z"/>
	<text transform="matrix(1 0 0 1 1.88 361.6016)" class="st12 st6 st15">Air </text>
	<text transform="matrix(1 0 0 1 27.5597 361.6016)" class="st12 st6 st15">ﬁ</text>
	<text transform="matrix(1 0 0 1 32.3253 361.6016)" class="st12 st6 st15"> </text>
	<text transform="matrix(1 0 0 1 37.0988 361.6016)" class="st12 st6 st15">low conﬁ</text>
	<text transform="matrix(1 0 0 1 103.8488 361.6016)" class="st12 st6 st15"> </text>
	<text transform="matrix(1 0 0 1 108.6144 361.6016)" class="st12 st6 st15 st17">g1</text>
	<path class="st16" d="M269.4,369.2c8.6,0,15.5-6.9,15.5-15.5c0-8.6-6.9-15.5-15.5-15.5s-15.5,6.9-15.5,15.5
		C253.9,362.3,260.8,369.2,269.4,369.2L269.4,369.2z"/>
	<path class="st12" d="M269.4,350.5c0.4,0,0.8-0.1,1.1-0.4c0.3-0.3,0.4-0.6,0.4-1c0-0.4-0.1-0.7-0.4-1c-0.3-0.3-0.6-0.4-1.1-0.4
		c-0.4,0-0.8,0.1-1.1,0.4c-0.3,0.3-0.4,0.6-0.4,1c0,0.4,0.1,0.7,0.4,1C268.6,350.3,268.9,350.5,269.4,350.5L269.4,350.5L269.4,350.5
		z M268.1,351.3v8.3h2.6v-8.3H268.1L268.1,351.3z"/>
	<text transform="matrix(1 0 0 1 1.88 399.5938)" class="st12 st6 st15">dP conﬁ</text>
	<text transform="matrix(1 0 0 1 61.3722 399.5938)" class="st12 st6 st15"> </text>
	<text transform="matrix(1 0 0 1 66.1378 399.5938)" class="st12 st6 st15 st18">g2</text>
	<path class="st16" d="M269.4,407.2c8.6,0,15.5-6.9,15.5-15.5c0-8.6-6.9-15.5-15.5-15.5s-15.5,6.9-15.5,15.5
		C253.9,400.3,260.8,407.2,269.4,407.2L269.4,407.2z"/>
	<path class="st12" d="M269.4,388.5c0.4,0,0.8-0.1,1.1-0.4c0.3-0.3,0.4-0.6,0.4-1c0-0.4-0.1-0.7-0.4-1c-0.3-0.3-0.6-0.4-1.1-0.4
		c-0.4,0-0.8,0.1-1.1,0.4c-0.3,0.3-0.4,0.6-0.4,1c0,0.4,0.1,0.7,0.4,1C268.6,388.3,268.9,388.5,269.4,388.5L269.4,388.5L269.4,388.5
		z M268.1,389.3v8.3h2.6v-8.3H268.1L268.1,389.3z"/>
	<text transform="matrix(1 0 0 1 1.88 437.6094)" class="st12 st6 st15">Remote start</text>
	<text transform="matrix(1 0 0 1 215.5831 437.6094)" class="st12 st6 st15">1</text>
	<path class="st16" d="M269.4,445.2c8.6,0,15.5-6.9,15.5-15.5c0-8.6-6.9-15.5-15.5-15.5s-15.5,6.9-15.5,15.5
		C253.9,438.3,260.8,445.2,269.4,445.2L269.4,445.2z"/>
	<path class="st12" d="M269.4,426.5c0.4,0,0.8-0.1,1.1-0.4c0.3-0.3,0.4-0.6,0.4-1c0-0.4-0.1-0.7-0.4-1c-0.3-0.3-0.6-0.4-1.1-0.4
		c-0.4,0-0.8,0.1-1.1,0.4c-0.3,0.3-0.4,0.6-0.4,1c0,0.4,0.1,0.7,0.4,1C268.6,426.3,268.9,426.5,269.4,426.5L269.4,426.5L269.4,426.5
		z M268.1,427.3v8.3h2.6v-8.3H268.1L268.1,427.3z"/>
	<text transform="matrix(1 0 0 1 1.88 475.6016)" class="st12 st6 st15">Remote cleaning</text>
	<text transform="matrix(1 0 0 1 215.5831 475.6016)" class="st12 st6 st15">1</text>
	<path class="st16" d="M269.4,482.9c8.6,0,15.5-6.9,15.5-15.5c0-8.6-6.9-15.5-15.5-15.5s-15.5,6.9-15.5,15.5
		C253.9,476,260.8,482.9,269.4,482.9L269.4,482.9z"/>
	<path class="st12" d="M269.4,464.2c0.4,0,0.8-0.1,1.1-0.4c0.3-0.3,0.4-0.6,0.4-1c0-0.4-0.1-0.7-0.4-1c-0.3-0.3-0.6-0.4-1.1-0.4
		c-0.4,0-0.8,0.1-1.1,0.4c-0.3,0.3-0.4,0.6-0.4,1c0,0.4,0.1,0.7,0.4,1C268.6,464.1,268.9,464.2,269.4,464.2L269.4,464.2L269.4,464.2
		z M268.1,465.1v8.3h2.6v-8.3H268.1L268.1,465.1z"/>
	<text transform="matrix(1 0 0 1 1.88 520.5938)" class="st5 st6 st14">CENTRAL DUST COLLECTOR - SEPARATOR</text>
	<text transform="matrix(1 0 0 1 1.88 554.5)" class="st12 st6 st15">CDC separator</text>
	<text transform="matrix(1 0 0 1 215.5831 554.5)" class="st12 st6 st15">1</text>
	<path class="st16" d="M269.4,561.8c8.6,0,15.5-6.9,15.5-15.5c0-8.6-6.9-15.5-15.5-15.5s-15.5,6.9-15.5,15.5
		C253.9,554.9,260.8,561.8,269.4,561.8L269.4,561.8z"/>
	<path class="st12" d="M269.4,543.1c0.4,0,0.8-0.1,1.1-0.4c0.3-0.3,0.4-0.6,0.4-1c0-0.4-0.1-0.7-0.4-1c-0.3-0.3-0.6-0.4-1.1-0.4
		c-0.4,0-0.8,0.1-1.1,0.4c-0.3,0.3-0.4,0.6-0.4,1c0,0.4,0.1,0.7,0.4,1C268.6,543,268.9,543.1,269.4,543.1L269.4,543.1L269.4,543.1z
		 M268.1,544v8.3h2.6V544H268.1L268.1,544z"/>
	<path class="st12" d="M320.9,271h295v25.7h-295V271z M320.9,463.9h295v25.7h-295V463.9z"/>
	<path class="st5" d="M320.9,296.7h200v38h-200V296.7z M520.9,296.7h45v38h-45V296.7z M565.9,296.7h50v38h-50V296.7z M320.9,334.7
		h200v38h-200V334.7z M520.9,334.7h45v38h-45V334.7z M565.9,334.7h50v38h-50V334.7z M320.9,372.7h200v38h-200V372.7z M520.9,372.7
		h45v38h-45V372.7z M565.9,372.7h50v38h-50V372.7z M320.9,410.7h200v38h-200V410.7z M520.9,410.7h45v38h-45V410.7z M565.9,410.7h50
		v38h-50V410.7z M320.9,489.6h200v38h-200V489.6z M520.9,489.6h45v38h-45V489.6z M565.9,489.6h50v38h-50V489.6z M320.9,527.6h200v38
		h-200V527.6z M520.9,527.6h45v38h-45V527.6z M565.9,527.6h50v38h-50V527.6z M320.9,565.6h200v38h-200V565.6z M520.9,565.6h45v38
		h-45V565.6z M565.9,565.6h50v38h-50V565.6z"/>
	<path class="st13" d="M320.9,334.7h200 M520.9,334.7h45 M320.9,372.7h200 M520.9,372.7h45 M320.9,410.7h200 M520.9,410.7h45
		 M320.9,527.6h200 M520.9,527.6h45 M320.9,565.6h200 M520.9,565.6h45 M320.9,603.6h200 M520.9,603.6h45 M565.9,603.6h50
		 M320.9,448.7h200 M520.9,448.7h45 M565.9,448.7h50"/>
	<text transform="matrix(1 0 0 1 326.88 289.6953)" class="st5 st6 st14">DEDUSTING UNITS</text>
	<text transform="matrix(1 0 0 1 326.88 323.6016)" class="st12 st6 st15">Outlet valve conﬁ</text>
	<text transform="matrix(1 0 0 1 462.4659 323.6016)" class="st12 st6 st15"> </text>
	<text transform="matrix(1 0 0 1 467.2316 323.6016)" class="st12 st6 st15 st19">g2</text>
	<path class="st16" d="M594.4,331.2c8.6,0,15.5-6.9,15.5-15.5c0-8.6-6.9-15.5-15.5-15.5s-15.5,6.9-15.5,15.5
		C578.9,324.3,585.8,331.2,594.4,331.2L594.4,331.2z"/>
	<path class="st12" d="M594.4,312.5c0.4,0,0.8-0.1,1.1-0.4c0.3-0.3,0.4-0.6,0.4-1c0-0.4-0.1-0.7-0.4-1c-0.3-0.3-0.6-0.4-1.1-0.4
		c-0.4,0-0.8,0.1-1.1,0.4c-0.3,0.3-0.4,0.6-0.4,1c0,0.4,0.1,0.7,0.4,1C593.6,312.3,593.9,312.5,594.4,312.5L594.4,312.5L594.4,312.5
		z M593.1,313.3v8.3h2.6v-8.3H593.1L593.1,313.3z"/>
	<text transform="matrix(1 0 0 1 326.88 361.6016)" class="st12 st6 st15">IR detector</text>
	<text transform="matrix(1 0 0 1 538.7706 361.6016)" class="st12 st6 st15">2</text>
	<path class="st16" d="M594.4,369.2c8.6,0,15.5-6.9,15.5-15.5c0-8.6-6.9-15.5-15.5-15.5s-15.5,6.9-15.5,15.5
		C578.9,362.3,585.8,369.2,594.4,369.2L594.4,369.2z"/>
	<path class="st12" d="M594.4,350.5c0.4,0,0.8-0.1,1.1-0.4c0.3-0.3,0.4-0.6,0.4-1c0-0.4-0.1-0.7-0.4-1c-0.3-0.3-0.6-0.4-1.1-0.4
		c-0.4,0-0.8,0.1-1.1,0.4c-0.3,0.3-0.4,0.6-0.4,1c0,0.4,0.1,0.7,0.4,1C593.6,350.3,593.9,350.5,594.4,350.5L594.4,350.5L594.4,350.5
		z M593.1,351.3v8.3h2.6v-8.3H593.1L593.1,351.3z"/>
	<text transform="matrix(1 0 0 1 326.88 399.5938)" class="st12 st6 st15">DDU dust monitor</text>
	<text transform="matrix(1 0 0 1 538.63 399.5938)" class="st12 st6 st15">3</text>
	<path class="st16" d="M594.4,407.2c8.6,0,15.5-6.9,15.5-15.5c0-8.6-6.9-15.5-15.5-15.5s-15.5,6.9-15.5,15.5
		C578.9,400.3,585.8,407.2,594.4,407.2L594.4,407.2z"/>
	<path class="st12" d="M594.4,388.5c0.4,0,0.8-0.1,1.1-0.4c0.3-0.3,0.4-0.6,0.4-1c0-0.4-0.1-0.7-0.4-1c-0.3-0.3-0.6-0.4-1.1-0.4
		c-0.4,0-0.8,0.1-1.1,0.4c-0.3,0.3-0.4,0.6-0.4,1c0,0.4,0.1,0.7,0.4,1C593.6,388.3,593.9,388.5,594.4,388.5L594.4,388.5L594.4,388.5
		z M593.1,389.3v8.3h2.6v-8.3H593.1L593.1,389.3z"/>
	<text transform="matrix(1 0 0 1 326.88 437.6094)" class="st12 st6 st15">Dust extract conﬁ</text>
	<text transform="matrix(1 0 0 1 462.7394 437.6094)" class="st12 st6 st15"> </text>
	<text transform="matrix(1 0 0 1 467.505 437.6094)" class="st12 st6 st15 st19">g2</text>
	<path class="st16" d="M594.4,444.9c8.6,0,15.5-6.9,15.5-15.5c0-8.6-6.9-15.5-15.5-15.5s-15.5,6.9-15.5,15.5
		C578.9,438,585.8,444.9,594.4,444.9L594.4,444.9z"/>
	<path class="st12" d="M594.4,426.2c0.4,0,0.8-0.1,1.1-0.4c0.3-0.3,0.4-0.6,0.4-1c0-0.4-0.1-0.7-0.4-1c-0.3-0.3-0.6-0.4-1.1-0.4
		c-0.4,0-0.8,0.1-1.1,0.4c-0.3,0.3-0.4,0.6-0.4,1c0,0.4,0.1,0.7,0.4,1C593.6,426.1,593.9,426.2,594.4,426.2L594.4,426.2L594.4,426.2
		z M593.1,427.1v8.3h2.6v-8.3H593.1L593.1,427.1z"/>
	<text transform="matrix(1 0 0 1 326.88 482.5938)" class="st5 st6 st14">CENTRAL DUST COLLECTOR</text>
	<text transform="matrix(1 0 0 1 326.88 516.5)" class="st12 st6 st15">Dust collect mode</text>
	<text transform="matrix(1 0 0 1 538.7706 516.5)" class="st12 st6 st15">2</text>
	<path class="st16" d="M594.4,524.1c8.6,0,15.5-6.9,15.5-15.5c0-8.6-6.9-15.5-15.5-15.5s-15.5,6.9-15.5,15.5
		C578.9,517.2,585.8,524.1,594.4,524.1L594.4,524.1z"/>
	<path class="st12" d="M594.4,505.4c0.4,0,0.8-0.1,1.1-0.4c0.3-0.3,0.4-0.6,0.4-1c0-0.4-0.1-0.7-0.4-1c-0.3-0.3-0.6-0.4-1.1-0.4
		c-0.4,0-0.8,0.1-1.1,0.4c-0.3,0.3-0.4,0.6-0.4,1c0,0.4,0.1,0.7,0.4,1C593.6,505.2,593.9,505.4,594.4,505.4L594.4,505.4L594.4,505.4
		z M593.1,506.2v8.3h2.6v-8.3H593.1L593.1,506.2z"/>
	<text transform="matrix(1 0 0 1 326.88 554.5)" class="st12 st6 st15">CDC dust monitor</text>
	<text transform="matrix(1 0 0 1 538.7706 554.5)" class="st12 st6 st15">2</text>
	<path class="st16" d="M594.4,562.1c8.6,0,15.5-6.9,15.5-15.5c0-8.6-6.9-15.5-15.5-15.5s-15.5,6.9-15.5,15.5
		C578.9,555.2,585.8,562.1,594.4,562.1L594.4,562.1z"/>
	<path class="st12" d="M594.4,543.4c0.4,0,0.8-0.1,1.1-0.4c0.3-0.3,0.4-0.6,0.4-1c0-0.4-0.1-0.7-0.4-1c-0.3-0.3-0.6-0.4-1.1-0.4
		c-0.4,0-0.8,0.1-1.1,0.4c-0.3,0.3-0.4,0.6-0.4,1c0,0.4,0.1,0.7,0.4,1C593.6,543.2,593.9,543.4,594.4,543.4L594.4,543.4L594.4,543.4
		z M593.1,544.2v8.3h2.6v-8.3H593.1L593.1,544.2z"/>
	<text transform="matrix(1 0 0 1 326.88 592.5)" class="st12 st6 st15">Dust extract conﬁ</text>
	<text transform="matrix(1 0 0 1 462.7394 592.5)" class="st12 st6 st15"> </text>
	<text transform="matrix(1 0 0 1 467.505 592.5)" class="st12 st6 st15 st19">g3</text>
	<path class="st16" d="M594.4,599.8c8.6,0,15.5-6.9,15.5-15.5c0-8.6-6.9-15.5-15.5-15.5s-15.5,6.9-15.5,15.5
		C578.9,592.9,585.8,599.8,594.4,599.8L594.4,599.8z"/>
	<path class="st12" d="M594.4,581.1c0.4,0,0.8-0.1,1.1-0.4c0.3-0.3,0.4-0.6,0.4-1c0-0.4-0.1-0.7-0.4-1c-0.3-0.3-0.6-0.4-1.1-0.4
		c-0.4,0-0.8,0.1-1.1,0.4c-0.3,0.3-0.4,0.6-0.4,1c0,0.4,0.1,0.7,0.4,1C593.6,581,593.9,581.1,594.4,581.1L594.4,581.1L594.4,581.1z
		 M593.1,582v8.3h2.6V582H593.1L593.1,582z"/>
</g>
</svg>
