<?xml version="1.0" encoding="UTF-8" standalone="no"?>
<!DOCTYPE svg PUBLIC "-//W3C//DTD SVG 1.1//EN" "http://www.w3.org/Graphics/SVG/1.1/DTD/svg11.dtd">
<svg width="100%" height="100%" viewBox="0 0 304 304" version="1.1" xmlns="http://www.w3.org/2000/svg" xmlns:xlink="http://www.w3.org/1999/xlink" xml:space="preserve" xmlns:serif="http://www.serif.com/" style="fill-rule:evenodd;clip-rule:evenodd;stroke-linejoin:round;stroke-miterlimit:2;">
    <g transform="matrix(1,0,0,1,-1310.542584,-1529.090883)">
        <g>
            <path d="M1426.62,1547.34C1426.51,1547.48 1426.39,1547.61 1426.27,1547.74C1426.27,1547.75 1426.26,1547.76 1426.25,1547.77C1419.82,1555.17 1416.29,1565.81 1417.54,1579.69C1421.17,1620.05 1463.87,1670.07 1463.87,1670.07C1463.87,1670.07 1449.93,1599.58 1510.46,1535.08C1510.46,1535.08 1455.19,1515.42 1426.62,1547.34Z" style="fill:rgb(65,64,66);fill-rule:nonzero;"/>
            <path d="M1595.9,1645.17C1595.77,1645.06 1595.64,1644.94 1595.51,1644.82C1595.5,1644.81 1595.49,1644.81 1595.48,1644.8C1588.07,1638.37 1577.43,1634.84 1563.55,1636.08C1523.2,1639.72 1473.18,1682.42 1473.18,1682.42C1473.18,1682.42 1543.67,1668.48 1608.17,1729.01C1608.17,1729.01 1627.83,1673.73 1595.9,1645.17Z" style="fill:rgb(65,64,66);fill-rule:nonzero;"/>
            <path d="M1498.07,1814.45C1498.19,1814.32 1498.31,1814.19 1498.42,1814.05C1498.43,1814.04 1498.44,1814.03 1498.45,1814.03L1498.45,1814.02C1504.88,1806.62 1508.41,1795.98 1507.16,1782.1C1503.53,1741.74 1460.82,1691.73 1460.82,1691.73C1460.82,1691.73 1474.76,1762.21 1414.24,1826.71C1414.24,1826.71 1469.51,1846.37 1498.07,1814.45Z" style="fill:rgb(65,64,66);fill-rule:nonzero;"/>
            <path d="M1328.8,1716.62C1328.93,1716.74 1329.06,1716.85 1329.19,1716.97C1329.2,1716.98 1329.21,1716.99 1329.22,1716.99C1336.62,1723.42 1347.26,1726.96 1361.14,1725.71C1401.5,1722.08 1451.52,1679.37 1451.52,1679.37C1451.52,1679.37 1381.03,1693.31 1316.53,1632.78C1316.53,1632.78 1296.87,1688.06 1328.8,1716.62Z" style="fill:rgb(65,64,66);fill-rule:nonzero;"/>
        </g>
        <g transform="matrix(0.707107,0.707107,-0.707107,0.707107,1616.884655,-541.714863)">
            <path d="M1426.62,1547.34C1426.51,1547.48 1426.39,1547.61 1426.27,1547.74C1426.27,1547.75 1426.26,1547.76 1426.25,1547.77C1419.82,1555.17 1416.29,1565.81 1417.54,1579.69C1421.17,1620.05 1463.87,1670.07 1463.87,1670.07C1463.87,1670.07 1449.93,1599.58 1510.46,1535.08C1510.46,1535.08 1455.19,1515.42 1426.62,1547.34Z" style="fill:rgb(65,64,66);fill-rule:nonzero;"/>
            <path d="M1595.9,1645.17C1595.77,1645.06 1595.64,1644.94 1595.51,1644.82C1595.5,1644.81 1595.49,1644.81 1595.48,1644.8C1588.07,1638.37 1577.43,1634.84 1563.55,1636.08C1523.2,1639.72 1473.18,1682.42 1473.18,1682.42C1473.18,1682.42 1543.67,1668.48 1608.17,1729.01C1608.17,1729.01 1627.83,1673.73 1595.9,1645.17Z" style="fill:rgb(65,64,66);fill-rule:nonzero;"/>
            <path d="M1498.07,1814.45C1498.19,1814.32 1498.31,1814.19 1498.42,1814.05C1498.43,1814.04 1498.44,1814.03 1498.45,1814.03L1498.45,1814.02C1504.88,1806.62 1508.41,1795.98 1507.16,1782.1C1503.53,1741.74 1460.82,1691.73 1460.82,1691.73C1460.82,1691.73 1474.76,1762.21 1414.24,1826.71C1414.24,1826.71 1469.51,1846.37 1498.07,1814.45Z" style="fill:rgb(65,64,66);fill-rule:nonzero;"/>
            <path d="M1328.8,1716.62C1328.93,1716.74 1329.06,1716.85 1329.19,1716.97C1329.2,1716.98 1329.21,1716.99 1329.22,1716.99C1336.62,1723.42 1347.26,1726.96 1361.14,1725.71C1401.5,1722.08 1451.52,1679.37 1451.52,1679.37C1451.52,1679.37 1381.03,1693.31 1316.53,1632.78C1316.53,1632.78 1296.87,1688.06 1328.8,1716.62Z" style="fill:rgb(65,64,66);fill-rule:nonzero;"/>
        </g>
        <g transform="matrix(1,0,0,1,96.968462,182.338592)">
            <circle cx="1365.382" cy="1498.556" r="22.805" style="fill:rgb(65,64,66);"/>
            <path d="M1365.382,1462.971C1385.022,1462.971 1400.967,1478.916 1400.967,1498.556C1400.967,1518.197 1385.022,1534.142 1365.382,1534.142C1345.741,1534.142 1329.796,1518.197 1329.796,1498.556C1329.796,1478.916 1345.741,1462.971 1365.382,1462.971ZM1365.382,1475.751C1352.795,1475.751 1342.577,1485.97 1342.577,1498.556C1342.577,1511.143 1352.795,1521.361 1365.382,1521.361C1377.968,1521.361 1388.187,1511.143 1388.187,1498.556C1388.187,1485.97 1377.968,1475.751 1365.382,1475.751Z" style="fill:white;"/>
        </g>
    </g>
</svg>
