<?xml version="1.0" encoding="utf-8"?>
<!-- Generator: Adobe Illustrator 21.1.0, SVG Export Plug-In . SVG Version: 6.00 Build 0)  -->
<svg version="1.1" id="Layer_1" xmlns="http://www.w3.org/2000/svg" xmlns:xlink="http://www.w3.org/1999/xlink" x="0px" y="0px"
	 viewBox="0 0 612 792" style="enable-background:new 0 0 612 792;" xml:space="preserve">
<style type="text/css">
	.st0{clip-path:url(#SVGID_2_);fill:#000D38;}
	.st1{fill:#FFFFFF;}
	.st2{font-family:'Poppins-Medium';}
	.st3{font-size:15px;}
	.st4{fill:none;stroke:#00AAE7;stroke-width:2;}
	.st5{fill:#00AAE7;}
	.st6{font-family:'Poppins-Light';}
	.st7{font-size:36px;}
	.st8{font-family:'Poppins-SemiBold';}
	.st9{font-size:32px;}
	.st10{fill:#173156;}
	.st11{fill:none;stroke:#00AAE7;stroke-width:2;stroke-miterlimit:10;}
	.st12{fill:none;stroke:#173156;stroke-width:2;}
	.st13{fill:none;stroke:#173156;stroke-width:2;stroke-miterlimit:10;}
	.st14{fill:none;stroke:#FFFFFF;stroke-width:2;}
	.st15{fill:none;stroke:#FFFFFF;stroke-width:2;stroke-miterlimit:10;}
	.st16{font-size:24px;}
	.st17{font-family:'Poppins-Regular';}
	.st18{font-size:19px;}
</style>
<g>
	<g>
		<defs>
			<rect id="SVGID_1_" x="-94" y="156" width="799.9" height="480"/>
		</defs>
		<clipPath id="SVGID_2_">
			<use xlink:href="#SVGID_1_"  style="overflow:visible;"/>
		</clipPath>
		<polygon class="st0" points="-94.1,156 -94.1,636 705.9,636 705.9,156 -94.1,156 		"/>
		<polygon class="st0" points="-94.1,156 -94.1,246 705.9,246 705.9,156 -94.1,156 		"/>
	</g>
	<text transform="matrix(1 0 0 1 22.88 208.875)" class="st1 st2 st3">HOME</text>
	<path class="st4" d="M-33.1,177c-13.3,0-24,10.7-24,24l0,0c0,13.3,10.7,24,24,24h20c13.3,0,24-10.7,24-24l0,0c0-13.3-10.7-24-24-24
		H-33.1L-33.1,177z"/>
	<polygon class="st5" points="-31.1,196.5 -31.1,212.5 -15.1,212.5 -15.1,196.5 -23.1,189.5 -31.1,196.5 	"/>
	<text transform="matrix(1 0 0 1 539.0284 217)" class="st5 st6 st7">Actions</text>
	<text transform="matrix(1 0 0 1 1.88 335.5938)" class="st5 st8 st9">1</text>
	<text transform="matrix(1 0 0 1 13.4659 335.5938)" class="st1 st6 st9"> </text>
	<text transform="matrix(1 0 0 1 22.2316 335.5938)" class="st10 st6 st9">| </text>
	<text transform="matrix(1 0 0 1 39.3488 335.5938)" class="st10 st6 st9">5</text>
	<text transform="matrix(1 0 0 1 172.88 208.875)" class="st1 st2 st3">BACK</text>
	<path class="st4" d="M116.9,177c-13.3,0-24,10.7-24,24l0,0c0,13.3,10.7,24,24,24h20c13.3,0,24-10.7,24-24l0,0c0-13.3-10.7-24-24-24
		H116.9L116.9,177z"/>
	<path class="st11" d="M109.1,201h35.6 M122.6,187.5L109.1,201l13.5,13.5"/>
	<polyline class="st12" points="-23.3,582.7 -32.2,592 -23.3,601.3 	"/>
	<path class="st13" d="M-26.1,616c13.3,0,24-10.7,24-24s-10.7-24-24-24c-13.3,0-24,10.7-24,24S-39.4,616-26.1,616L-26.1,616z"/>
	<polyline class="st14" points="629.1,582.7 638,592 629.1,601.3 	"/>
	<path class="st15" d="M631.9,616c-13.3,0-24-10.7-24-24s10.7-24,24-24s24,10.7,24,24S645.1,616,631.9,616L631.9,616z"/>
	<text transform="matrix(1 0 0 1 121.88 327.1953)" class="st1 st8 st16">Lorem ipsum in nonsed maximin </text>
	<text transform="matrix(1 0 0 1 121.88 356)" class="st1 st8 st16">velestrum enimet ad que ilid </text>
	<text transform="matrix(1 0 0 1 121.88 401.6016)" class="st1 st17 st18">to es et ipsum autemquo optus et et ium fugiam</text>
	<text transform="matrix(1 0 0 1 582.7238 401.6016)" class="st1 st17 st18"> </text>
	<text transform="matrix(1 0 0 1 121.88 424.4062)" class="st1 st17 st18">utatiis simus ate dolorecature vent is maximil </text>
	<text transform="matrix(1 0 0 1 121.88 447.2031)" class="st1 st17 st18">luptas sitatia ea aut latur, core. Treperae volor sus </text>
	<text transform="matrix(1 0 0 1 121.88 470)" class="st1 st17 st18">di que plab identum, sinvent et ut aut acest adi </text>
	<text transform="matrix(1 0 0 1 121.88 492.7969)" class="st1 st17 st18">tes eribus debis qui berrum earum volupta tiasit </text>
	<text transform="matrix(1 0 0 1 121.88 515.6016)" class="st1 st17 st18">moditas.</text>
</g>
</svg>
