<?xml version="1.0" encoding="utf-8"?>
<!-- Generator: Adobe Illustrator 21.1.0, SVG Export Plug-In . SVG Version: 6.00 Build 0)  -->
<svg version="1.1" id="Layer_1" xmlns="http://www.w3.org/2000/svg" xmlns:xlink="http://www.w3.org/1999/xlink" x="0px" y="0px"
	 viewBox="0 0 799.9 480" style="enable-background:new 0 0 799.9 480;" xml:space="preserve">
<style type="text/css">
	.st0{clip-path:url(#SVGID_2_);fill:#000D38;}
	.st1{fill:#FFFFFF;}
	.st2{fill:#00AAE7;}
	.st3{font-family:'Poppins-Regular';}
	.st4{font-size:10px;}
	.st5{font-family:'Poppins-Bold';}
	.st6{font-size:17px;}
</style>
<g>
	<g>
		<defs>
			<rect id="SVGID_1_" width="799.9" height="480"/>
		</defs>
		<clipPath id="SVGID_2_">
			<use xlink:href="#SVGID_1_"  style="overflow:visible;"/>
		</clipPath>
		<polygon class="st0" points="-0.1,0 -0.1,480 799.9,480 799.9,0 -0.1,0 		"/>
	</g>
	<path class="st1" d="M362.4,46.9c0-0.7-0.5-1.2-1.2-1.2c-0.7,0-1.2,0.5-1.2,1.2s0.5,1.2,1.2,1.2C361.9,48.1,362.4,47.6,362.4,46.9
		L362.4,46.9z M359.5,57c0-0.9-0.7-1.6-1.6-1.6c-0.9,0-1.6,0.7-1.6,1.6s0.7,1.6,1.6,1.6C358.7,58.6,359.5,57.9,359.5,57L359.5,57z
		 M359.5,43.6c0-0.9-0.7-1.6-1.6-1.6c-0.9,0-1.6,0.7-1.6,1.6c0,0.9,0.7,1.6,1.6,1.6C358.7,45.2,359.5,44.5,359.5,43.6L359.5,43.6z
		 M355.7,60.3c0-0.7-0.5-1.2-1.2-1.2s-1.2,0.5-1.2,1.2c0,0.7,0.5,1.2,1.2,1.2S355.7,61,355.7,60.3L355.7,60.3z M355.7,40.2
		c0-0.7-0.5-1.2-1.2-1.2s-1.2,0.5-1.2,1.2c0,0.7,0.5,1.2,1.2,1.2S355.7,40.9,355.7,40.2L355.7,40.2z M352.4,50.3
		c0-0.7-0.5-1.2-1.2-1.2c-0.7,0-1.2,0.5-1.2,1.2s0.5,1.2,1.2,1.2C351.8,51.5,352.4,50.9,352.4,50.3L352.4,50.3z M349.8,46.9
		c0-1.1-0.9-2-2-2c-1.1,0-2,0.9-2,2c0,1.1,0.9,2,2,2C348.9,48.9,349.8,48,349.8,46.9L349.8,46.9z M346.1,43.6c0-0.9-0.7-1.6-1.6-1.6
		c-0.9,0-1.6,0.7-1.6,1.6c0,0.9,0.7,1.6,1.6,1.6C345.3,45.2,346.1,44.5,346.1,43.6L346.1,43.6z M342.3,53.6c0-0.7-0.5-1.2-1.2-1.2
		s-1.2,0.5-1.2,1.2s0.5,1.2,1.2,1.2S342.3,54.3,342.3,53.6L342.3,53.6z M342.3,46.9c0-0.7-0.5-1.2-1.2-1.2s-1.2,0.5-1.2,1.2
		s0.5,1.2,1.2,1.2S342.3,47.6,342.3,46.9L342.3,46.9z M342.8,50.3c0,0.9,0.7,1.6,1.6,1.6c0.9,0,1.6-0.7,1.6-1.6
		c0-0.9-0.7-1.6-1.6-1.6C343.6,48.7,342.8,49.4,342.8,50.3L342.8,50.3z M342.8,57c0,0.9,0.7,1.6,1.6,1.6c0.9,0,1.6-0.7,1.6-1.6
		s-0.7-1.6-1.6-1.6C343.6,55.4,342.8,56.1,342.8,57L342.8,57z M345.8,53.6c0,1.1,0.9,2,2,2c1.1,0,2-0.9,2-2c0-1.1-0.9-2-2-2
		C346.7,51.6,345.8,52.5,345.8,53.6L345.8,53.6z M360,53.6c0,0.7,0.5,1.2,1.2,1.2c0.7,0,1.2-0.5,1.2-1.2s-0.5-1.2-1.2-1.2
		C360.5,52.4,360,53,360,53.6L360,53.6z"/>
	<path class="st1" d="M458.9,48.8c-0.4-0.2-0.7-0.3-1.1-0.3c-0.4,0-0.9,0.2-1.3,0.5c-0.4,0.3-0.9,0.9-1.4,1.8v-2.1h-1.8v9.2h1.8V53
		c0-0.7,0.2-1.4,0.7-1.9c0.5-0.5,0.9-0.8,1.5-0.8c0.3,0,0.5,0.1,0.9,0.3c0.3,0.2,0.6,0.4,0.9,0.6l1-1.6
		C459.6,49.2,459.2,49,458.9,48.8 M444.7,52.3c0.1-0.7,0.3-1.2,0.8-1.6c0.5-0.4,1-0.6,1.6-0.6c0.7,0,1.2,0.2,1.6,0.6
		c0.4,0.4,0.6,1,0.6,1.7H444.7L444.7,52.3z M450.1,49.8c-0.7-0.9-1.7-1.3-2.9-1.3c-1.3,0-2.3,0.4-3.1,1.3c-0.8,0.9-1.2,2-1.2,3.4
		c0,1.4,0.4,2.6,1.3,3.5c0.9,0.9,2,1.4,3.3,1.4c0.7,0,1.3-0.1,1.8-0.2c0.6-0.2,1.1-0.4,1.8-0.8v-1.8c-0.5,0.4-1,0.6-1.6,0.8
		c-0.6,0.2-1.2,0.3-1.8,0.3c-0.9,0-1.6-0.3-2.1-0.8c-0.5-0.5-0.8-1.2-0.9-2.1h6.5v-0.2C451.2,51.8,450.8,50.7,450.1,49.8 M435,50.1
		v0.2h1.6v4.3c0,1.3,0.2,2.2,0.7,2.7c0.5,0.5,1.2,0.8,2.1,0.8c0.4,0,0.8-0.1,1.2-0.2c0.4-0.1,0.8-0.3,1.2-0.5v-1.7
		c-0.3,0.2-0.6,0.3-1,0.5c-0.4,0.1-0.7,0.2-1.1,0.2c-0.4,0-0.7-0.1-1-0.4c-0.2-0.3-0.3-0.7-0.3-1.4v-4.3h2.9v-1.6h-2.9v-1.9h0
		L435,50.1L435,50.1z M431.8,57.9h1.8v-14h-1.8V57.9L431.8,57.9z M427.4,57.9h1.8v-9.2h-1.8V57.9L427.4,57.9z M429.3,45.9
		c0-0.3-0.1-0.5-0.3-0.7c-0.2-0.2-0.5-0.3-0.8-0.3c-0.3,0-0.6,0.1-0.8,0.3c-0.2,0.2-0.3,0.5-0.3,0.7c0,0.3,0.1,0.5,0.3,0.7
		c0.2,0.2,0.5,0.3,0.8,0.3c0.3,0,0.6-0.1,0.8-0.3C429.2,46.4,429.3,46.1,429.3,45.9 M418,43.9v14h2v-6.5h5.5v-1.8H420v-3.9h5.5v-1.8
		H418L418,43.9z M398.2,43.9v14h3.4v-8.9l4,4.9h0.3l3.9-4.9v8.9h3.5v-14h-3.2l-4.4,5.4l-4.4-5.4H398.2L398.2,43.9z M387.4,46.3h1.5
		c0.8,0,1.3,0.2,1.7,0.5c0.3,0.3,0.5,0.8,0.5,1.4c0,0.6-0.2,1.1-0.5,1.4c-0.3,0.3-0.9,0.5-1.7,0.5h-1.5V46.3L387.4,46.3z
		 M383.9,43.9v14h3.5v-5.6h0.6c0.8,0,1.3,0.2,1.7,0.5c0.4,0.4,0.8,1,1.3,1.9l1.6,3.2h3.9l-1.8-3.5c-0.4-0.8-0.8-1.4-1.1-1.8
		c-0.3-0.4-0.7-0.7-1.2-1c0.8-0.4,1.4-0.8,1.7-1.4c0.4-0.6,0.6-1.3,0.6-2.1c0-1.3-0.4-2.3-1.3-3.1c-0.9-0.8-2.1-1.1-3.7-1.1H383.9
		L383.9,43.9z M368.5,43.9v2.9h5v11.1h3.5V46.8h5v-2.9H368.5L368.5,43.9z"/>
	<path class="st2" d="M359.5,50.3c0-0.9-0.7-1.6-1.6-1.6c-0.9,0-1.6,0.7-1.6,1.6c0,0.9,0.7,1.6,1.6,1.6
		C358.7,51.9,359.5,51.2,359.5,50.3L359.5,50.3z M356.5,46.9c0-1.1-0.9-2-2-2c-1.1,0-2,0.9-2,2c0,1.1,0.9,2,2,2
		C355.6,48.9,356.5,48,356.5,46.9L356.5,46.9z M352.8,43.6c0-0.9-0.7-1.6-1.6-1.6c-0.9,0-1.6,0.7-1.6,1.6c0,0.9,0.7,1.6,1.6,1.6
		C352,45.2,352.8,44.5,352.8,43.6L352.8,43.6z M349,60.3c0-0.7-0.5-1.2-1.2-1.2c-0.7,0-1.2,0.5-1.2,1.2c0,0.7,0.5,1.2,1.2,1.2
		C348.5,61.5,349,61,349,60.3L349,60.3z M349,40.2c0-0.7-0.5-1.2-1.2-1.2c-0.7,0-1.2,0.5-1.2,1.2c0,0.7,0.5,1.2,1.2,1.2
		C348.5,41.4,349,40.9,349,40.2L349,40.2z M349.5,57c0,0.9,0.7,1.6,1.6,1.6c0.9,0,1.6-0.7,1.6-1.6s-0.7-1.6-1.6-1.6
		C350.3,55.4,349.5,56.1,349.5,57L349.5,57z M352.5,53.6c0,1.1,0.9,2,2,2c1.1,0,2-0.9,2-2c0-1.1-0.9-2-2-2
		C353.4,51.6,352.5,52.5,352.5,53.6L352.5,53.6z"/>
	<path class="st2" d="M430.7,240c0,19.8,16,35.8,35.8,35.8c19.8,0,35.8-16,35.8-35.8c0-19.8-16-35.8-35.8-35.8
		C446.7,204.2,430.7,220.2,430.7,240"/>
	<path class="st1" d="M595.3,236.2c1.5-13.3,10.2-23.4,22.3-23.4c13.8,0,20.8,11,21.9,23.4H595.3L595.3,236.2z M619.2,275.8
		c13.1,0,21.4-5,28.3-12.9l-6.4-5.7c-5.7,5.8-12.1,9.7-21.6,9.7c-12.2,0-22.7-8.4-24.2-23.2h54.4c0.1-1.2,0.1-1.9,0.1-3.3
		c0-20-11.7-36.2-32-36.2c-19.1,0-32.9,15.9-32.9,35.7v0.3C585,261.4,600.5,275.8,619.2,275.8 M514.1,274.2h10.2V235
		c0-12.9,8.8-21.5,20.6-21.5c12.2,0,19,8,19,20.7v40.1h10.2v-42.6c0-16.3-9.8-27.5-26.3-27.5c-11.8,0-18.8,6-23.5,13.4v-11.9h-10.2
		V274.2L514.1,274.2z"/>
	<path class="st1" d="M332.2,286.4h25.7v-35.3h33v35.3h25.7v-92.9H391v34.8h-33v-34.8h-25.7V286.4L332.2,286.4z M281.4,288.3
		c20.4,0,32.1-8.9,41-21L303,253.5c-5.7,6.8-11.3,11.3-21,11.3c-13,0-22.2-10.9-22.2-24.8v-0.3c0-13.5,9.2-24.7,22.2-24.7
		c9,0,15,4.4,20.3,10.9l19.4-15c-8.1-11.3-20.6-19.2-39.4-19.2c-28.1,0-48.8,21.2-48.8,48.3v0.3C233.5,268,254.8,288.3,281.4,288.3
		 M149.9,286.4h75.4v-21.9h-49.9v-14.7h44.6v-20.3h-44.6v-14.2h49.2v-21.8h-74.7V286.4L149.9,286.4z"/>
	<text transform="matrix(1 0 0 1 559.1066 451)" class="st1 st3 st4">© 2025 TRM Filter d.o.o. All rights reserved.</text>
	<text transform="matrix(1 0 0 1 655.2159 191.7031)" class="st1 st5 st6">1.2</text>
</g>
</svg>
