<?xml version="1.0" encoding="utf-8"?>
<!-- Generator: Adobe Illustrator 21.1.0, SVG Export Plug-In . SVG Version: 6.00 Build 0)  -->
<svg version="1.1" id="Layer_1" xmlns="http://www.w3.org/2000/svg" xmlns:xlink="http://www.w3.org/1999/xlink" x="0px" y="0px"
	 viewBox="0 0 612 792" style="enable-background:new 0 0 612 792;" xml:space="preserve">
<style type="text/css">
	.st0{clip-path:url(#SVGID_2_);fill:#000D38;}
	.st1{fill:#00AAE7;}
	.st2{font-family:'Poppins-Light';}
	.st3{font-size:36px;}
	.st4{fill:#FFFFFF;}
	.st5{font-size:22px;}
	.st6{fill:none;stroke:#00AAE7;stroke-miterlimit:10;}
	.st7{font-family:'Poppins-Medium';}
	.st8{font-size:18px;}
	.st9{font-size:15px;}
	.st10{fill:none;stroke:#00AAE7;stroke-width:2;}
	.st11{fill:none;stroke:#00AAE7;stroke-width:2;stroke-miterlimit:10;}
</style>
<g>
	<g>
		<defs>
			<rect id="SVGID_1_" x="-94" y="156" width="799.9" height="480"/>
		</defs>
		<clipPath id="SVGID_2_">
			<use xlink:href="#SVGID_1_"  style="overflow:visible;"/>
		</clipPath>
		<polygon class="st0" points="-94.1,156 -94.1,636 705.9,636 705.9,156 -94.1,156 		"/>
		<polygon class="st0" points="-94.1,156 -94.1,246 705.9,246 705.9,156 -94.1,156 		"/>
	</g>
	<text transform="matrix(1 0 0 1 332.7784 217)" class="st1 st2 st3">User management</text>
	<text transform="matrix(1 0 0 1 219.5831 344.8047)" class="st4 st2 st5">***Password***</text>
	<text transform="matrix(1 0 0 1 219.5831 452.0469)" class="st4 st2 st5">***Password***</text>
	<path class="st6" d="M465.4,307.2h-319v52h319V307.2L465.4,307.2z M146.4,466.5h319v-52h-319V466.5L146.4,466.5z"/>
	<text transform="matrix(1 0 0 1 42.255 338.4453)" class="st1 st7 st8">Operator</text>
	<text transform="matrix(1 0 0 1 24.2706 445.7031)" class="st1 st7 st8">Technician</text>
	<polygon class="st6" points="465.4,521.8 146.4,521.8 146.4,573.8 465.4,573.8 465.4,521.8 	"/>
	<text transform="matrix(1 0 0 1 -1.2762 552.9453)" class="st1 st7 st8">Administrator</text>
	<text transform="matrix(1 0 0 1 219.5831 559.2969)" class="st4 st2 st5">***Password***</text>
	<text transform="matrix(1 0 0 1 22.88 208.875)" class="st4 st7 st9">BACK</text>
	<path class="st10" d="M-33.1,177c-13.3,0-24,10.7-24,24l0,0c0,13.3,10.7,24,24,24h20c13.3,0,24-10.7,24-24l0,0
		c0-13.3-10.7-24-24-24H-33.1L-33.1,177z"/>
	<path class="st11" d="M-40.9,201h35.6 M-27.4,187.5L-40.9,201l13.5,13.5"/>
</g>
</svg>
