<?xml version="1.0" encoding="utf-8"?>
<!-- Generator: Adobe Illustrator 21.1.0, SVG Export Plug-In . SVG Version: 6.00 Build 0)  -->
<svg version="1.1" id="Layer_1" xmlns="http://www.w3.org/2000/svg" xmlns:xlink="http://www.w3.org/1999/xlink" x="0px" y="0px"
	 viewBox="0 0 612 792" style="enable-background:new 0 0 612 792;" xml:space="preserve">
<style type="text/css">
	.st0{clip-path:url(#SVGID_2_);fill:#000D38;}
	.st1{fill:#FFFFFF;}
	.st2{font-family:'Poppins-Medium';}
	.st3{font-size:15px;}
	.st4{fill:none;stroke:#00AAE7;stroke-width:2;}
	.st5{fill:#E5FFFF;}
	.st6{fill:#000D38;}
	.st7{font-family:'Poppins-SemiBold';}
	.st8{font-size:18px;}
	.st9{fill:#00AAE7;}
	.st10{font-family:'Poppins-Light';}
	.st11{font-size:36px;}
</style>
<g>
	<g>
		<defs>
			<rect id="SVGID_1_" x="-94" y="156" width="799.9" height="480"/>
		</defs>
		<clipPath id="SVGID_2_">
			<use xlink:href="#SVGID_1_"  style="overflow:visible;"/>
		</clipPath>
		<polygon class="st0" points="-94.1,156 -94.1,636 705.9,636 705.9,156 -94.1,156 		"/>
		<polygon class="st0" points="-94.1,156 -94.1,246 705.9,246 705.9,156 -94.1,156 		"/>
	</g>
	<text transform="matrix(1 0 0 1 22.88 208.875)" class="st1 st2 st3">HOME</text>
	<path class="st4" d="M-33.1,177c-13.3,0-24,10.7-24,24l0,0c0,13.3,10.7,24,24,24h20c13.3,0,24-10.7,24-24l0,0c0-13.3-10.7-24-24-24
		H-33.1L-33.1,177z"/>
	<path class="st5" d="M344.9,302c-2.2,0-4,1.8-4,4v42c0,2.2,1.8,4,4,4h272c2.2,0,4-1.8,4-4v-42c0-2.2-1.8-4-4-4H344.9L344.9,302z"/>
	<path class="st5" d="M-5.1,302c-2.2,0-4,1.8-4,4v42c0,2.2,1.8,4,4,4h272c2.2,0,4-1.8,4-4v-42c0-2.2-1.8-4-4-4H-5.1L-5.1,302z"/>
	<text transform="matrix(1 0 0 1 18.2238 333.4453)" class="st6 st7 st8">Language</text>
	<text transform="matrix(1 0 0 1 368.2238 333.4453)" class="st6 st7 st8">I/O</text>
	<path class="st5" d="M-5.1,372c-2.2,0-4,1.8-4,4v42c0,2.2,1.8,4,4,4h272c2.2,0,4-1.8,4-4v-42c0-2.2-1.8-4-4-4H-5.1L-5.1,372z"/>
	<text transform="matrix(1 0 0 1 18.2238 403.4453)" class="st6 st7 st8">Date &amp; time</text>
	<path class="st5" d="M344.9,372c-2.2,0-4,1.8-4,4v42c0,2.2,1.8,4,4,4h272c2.2,0,4-1.8,4-4v-42c0-2.2-1.8-4-4-4H344.9L344.9,372z"/>
	<text transform="matrix(1 0 0 1 368.2238 403.4453)" class="st6 st7 st8">System settings</text>
	<path class="st5" d="M344.9,442c-2.2,0-4,1.8-4,4v42c0,2.2,1.8,4,4,4h272c2.2,0,4-1.8,4-4v-42c0-2.2-1.8-4-4-4H344.9L344.9,442z"/>
	<text transform="matrix(1 0 0 1 368.2238 473.4453)" class="st6 st7 st8">Communication settings</text>
	<path class="st5" d="M-5.1,442c-2.2,0-4,1.8-4,4v42c0,2.2,1.8,4,4,4h272c2.2,0,4-1.8,4-4v-42c0-2.2-1.8-4-4-4H-5.1L-5.1,442z"/>
	<text transform="matrix(1 0 0 1 18.2238 473.4453)" class="st6 st7 st8">User management</text>
	<path class="st5" d="M-5.1,512c-2.2,0-4,1.8-4,4v42c0,2.2,1.8,4,4,4h272c2.2,0,4-1.8,4-4v-42c0-2.2-1.8-4-4-4H-5.1L-5.1,512z"/>
	<text transform="matrix(1 0 0 1 18.2238 543.4453)" class="st6 st7 st8">Device parameters</text>
	<polygon class="st9" points="-31.1,196.5 -31.1,212.5 -15.1,212.5 -15.1,196.5 -23.1,189.5 -31.1,196.5 	"/>
	<text transform="matrix(1 0 0 1 527.5753 217)" class="st9 st10 st11">Settings</text>
</g>
</svg>
